<svg version="1.1" xmlns="http://www.w3.org/2000/svg" width="512" height="512" viewBox="0 0 512.000000 512.000000">
<path d="M0 0 C0.74865829 -0.00671722 1.49731659 -0.01343445 2.2686615 -0.02035522 C4.73540955 -0.03930033 7.20188496 -0.04325778 9.66870117 -0.04541016 C11.39117035 -0.05184105 13.11363844 -0.05856963 14.83610535 -0.06558228 C18.4447991 -0.0775467 22.05339719 -0.08126401 25.66210938 -0.08007812 C30.27211697 -0.07987511 34.88150691 -0.10716288 39.49136829 -0.14162254 C43.04915651 -0.1639303 46.60679708 -0.16791447 50.16464806 -0.16685867 C51.8634116 -0.16920935 53.56217953 -0.17800268 55.26087379 -0.19352341 C73.01810323 -0.3405649 73.01810323 -0.3405649 80.64135742 6.22021484 C81.18018555 6.86216797 81.71901367 7.50412109 82.27416992 8.16552734 C82.8284668 8.80232422 83.38276367 9.43912109 83.95385742 10.09521484 C87.58342426 15.60823258 87.68077117 21.05429901 87.6262207 27.41699219 C87.62651276 28.31519684 87.62680481 29.21340149 87.62710571 30.13882446 C87.62571785 33.09313787 87.61018224 36.04719575 87.59448242 39.00146484 C87.59075036 41.05555076 87.5879043 43.10963847 87.58590698 45.16372681 C87.57828575 50.5592748 87.55865019 55.95471443 87.53649902 61.35021973 C87.51600808 66.86025527 87.50689832 72.3703084 87.49682617 77.88037109 C87.47540291 88.68380402 87.44128516 99.48715665 87.39916992 110.29052734 C88.17389648 110.59289307 88.94862305 110.89525879 89.74682617 111.20678711 C114.02080741 121.12506792 132.36015973 145.67195612 142.63745117 168.91162109 C149.39916992 185.09210255 149.39916992 185.09210255 149.39916992 192.29052734 C150.45104492 192.37302734 151.50291992 192.45552734 152.58666992 192.54052734 C156.82337399 193.37397733 158.45338393 194.18108657 161.39916992 197.29052734 C165.0767072 203.75515704 164.88174024 209.98094098 164.83666992 217.29052734 C164.85665039 218.44037109 164.87663086 219.59021484 164.8972168 220.77490234 C164.89334448 227.49724253 164.4932905 231.86939899 160.39916992 237.29052734 C156.73567754 240.27916586 154.06402999 240.6159827 149.39916992 240.29052734 C149.35791992 241.44552734 149.31666992 242.60052734 149.27416992 243.79052734 C146.37628727 268.85329625 127.99393426 293.32692216 109.39916992 309.29052734 C103.1388318 314.16127755 96.54445096 318.82035261 89.39916992 322.29052734 C89.39552429 323.41059677 89.39187866 324.5306662 89.38812256 325.68467712 C89.35111083 336.26295401 89.29327056 346.84094145 89.21526718 357.41899776 C89.17583209 362.85673634 89.14362405 368.29431392 89.12817383 373.73217773 C89.11298126 378.98435507 89.07848919 384.23608972 89.0308609 389.48806953 C89.01607397 391.48738307 89.00813046 393.48675982 89.00728607 395.48612785 C89.00490658 398.2963211 88.97774813 401.10530064 88.94506836 403.9152832 C88.95261391 405.14312279 88.95261391 405.14312279 88.96031189 406.39576721 C88.82071834 414.20239625 86.07291419 421.77012751 80.39916992 427.29052734 C72.48496066 433.81669823 63.19638452 433.00321635 53.52026367 432.91943359 C51.78109082 432.92026358 50.04191805 432.92272786 48.30274963 432.92674255 C44.67066635 432.92959028 41.03920324 432.91499898 37.40722656 432.88745117 C32.76809153 432.85334438 28.13006254 432.85940472 23.49087429 432.87811375 C19.90386345 432.88871635 16.31710694 432.87971686 12.73011971 432.86472893 C11.02022114 432.85957227 9.31029575 432.85999814 7.60040092 432.86627388 C-10.12357006 432.90692135 -10.12357006 432.90692135 -17.58911133 426.61474609 C-18.02610352 426.07462891 -18.4630957 425.53451172 -18.91333008 424.97802734 C-19.36321289 424.44564453 -19.8130957 423.91326172 -20.27661133 423.36474609 C-24.20889018 417.20533586 -25.01902712 412.3212215 -24.84277344 405.16162109 C-24.83368958 404.27451447 -24.82460571 403.38740784 -24.81524658 402.47341919 C-24.79498376 400.55765611 -24.76850527 398.64195064 -24.73643303 396.72634888 C-24.69010594 393.69081727 -24.67022391 390.65621457 -24.65882874 387.62036133 C-24.62586124 378.99308183 -24.5783301 370.36693693 -24.43310547 361.74072266 C-24.34602628 356.45417581 -24.31747092 351.17006156 -24.32693672 345.88284302 C-24.3194664 343.87326195 -24.29023074 341.86363662 -24.23856926 339.85470581 C-23.87012247 330.94766408 -23.87012247 330.94766408 -25.60083008 322.29052734 C-29.17157867 318.56305349 -32.8648861 317.12875447 -37.60083008 315.29052734 C-61.60873927 298.44571707 -78.4956454 273.66307197 -85.60083008 245.29052734 C-85.76454102 244.64067871 -85.92825195 243.99083008 -86.09692383 243.32128906 C-90.45608841 225.13258479 -90.16396786 205.40384888 -85.60083008 187.29052734 C-85.35139648 186.29448486 -85.35139648 186.29448486 -85.09692383 185.27832031 C-79.94241679 165.50505859 -69.72933093 148.01067396 -55.60083008 133.29052734 C-54.46194336 132.05689453 -54.46194336 132.05689453 -53.30004883 130.79833984 C-45.2580269 122.34829389 -36.08695679 115.42088591 -25.60083008 110.29052734 C-25.59940506 109.16015045 -25.59798004 108.02977356 -25.59651184 106.86514282 C-25.57980308 96.18414109 -25.536911 85.50351846 -25.46873951 74.82271767 C-25.43452798 69.33227763 -25.40936857 63.84211415 -25.40527344 58.3515625 C-25.40097803 53.04745046 -25.37241197 47.74396164 -25.3273983 42.4400444 C-25.31446302 40.42201754 -25.31010146 38.40391595 -25.31467628 36.38585281 C-25.35298079 14.34751654 -25.35298079 14.34751654 -17.78718567 6.38076782 C-12.41410817 1.31393293 -7.31091091 -0.00948237 0 0 Z M-8.39282227 20.13842773 C-9.76716725 22.58686166 -9.96268983 23.934315 -9.92895508 26.72412109 C-9.92444336 27.65828857 -9.91993164 28.59245605 -9.9152832 29.55493164 C-9.89401367 30.60205322 -9.87274414 31.6491748 -9.85083008 32.72802734 C-9.83987305 33.84153564 -9.82891602 34.95504395 -9.81762695 36.10229492 C-9.7762008 39.60438069 -9.71714878 43.10550596 -9.65087891 46.60717773 C-9.59401574 49.65587568 -9.54159706 52.70463486 -9.48950195 55.75341797 C-9.22251047 71.26639252 -8.92255939 86.77859708 -8.60083008 102.29052734 C-7.3452832 102.01337891 -6.08973633 101.73623047 -4.79614258 101.45068359 C12.70654844 97.63833638 12.70654844 97.63833638 20.39916992 97.29052734 C21.31939941 97.24718262 22.23962891 97.20383789 23.18774414 97.15917969 C37.51751103 96.64648259 50.53220664 97.70870799 64.39916992 101.29052734 C66.0642111 101.63188753 67.7305875 101.96692021 69.39916992 102.29052734 C69.49181807 91.79859782 69.56290859 81.3067655 69.60641861 70.81451035 C69.62730048 65.94259958 69.65562906 61.07096853 69.70092773 56.19921875 C69.74436411 51.49837746 69.76830251 46.79780534 69.77867889 42.09677887 C69.78607424 40.30258191 69.80051559 38.50839981 69.82209015 36.71431732 C69.85109529 34.20261206 69.85512722 31.69202136 69.85327148 29.18017578 C69.86765259 28.43714706 69.88203369 27.69411835 69.89685059 26.92857361 C69.86938373 23.49665039 69.65743931 21.63153268 67.55828857 18.85992432 C63.83320217 16.15227353 60.73798343 16.16055941 56.26293945 16.14526367 C54.36549484 16.13569389 54.36549484 16.13569389 52.42971802 16.12593079 C51.04713987 16.12440196 49.66456122 16.12328808 48.28198242 16.12255859 C46.86335211 16.11934476 45.44472214 16.11598059 44.02609253 16.11247253 C41.05197379 16.10648481 38.0778841 16.10463225 35.10375977 16.10522461 C31.29845671 16.10532616 27.49334054 16.09167981 23.68808174 16.0744524 C20.75750885 16.06331642 17.82698089 16.0613059 14.89638901 16.06183434 C13.49380729 16.06065641 12.09122432 16.05624511 10.68866348 16.04850197 C8.72386338 16.03867131 6.7590084 16.04285231 4.79418945 16.04760742 C3.677388 16.0461824 2.56058655 16.04475739 1.40994263 16.04328918 C-2.65204216 16.37685061 -5.53017317 17.18646711 -8.39282227 20.13842773 Z M-45.99926758 147.82470703 C-57.6859861 161.16596788 -65.08639441 176.22329377 -69.60083008 193.29052734 C-69.83415039 194.09490234 -70.0674707 194.89927734 -70.30786133 195.72802734 C-76.84359624 220.55441606 -70.48691749 248.67969186 -57.96801758 270.50537109 C-54.70313543 275.89418196 -50.80244706 280.59885561 -46.60083008 285.29052734 C-45.8525293 286.23412109 -45.8525293 286.23412109 -45.08911133 287.19677734 C-30.46383958 305.63551536 -5.57916045 316.96734136 17.39916992 320.29052734 C46.33742233 322.07274218 74.20651159 316.91176841 96.68823242 297.51708984 C99.67321492 294.8560554 102.53553011 292.08118084 105.39916992 289.29052734 C106.04241211 288.72076172 106.6856543 288.15099609 107.34838867 287.56396484 C123.63507135 272.75788968 133.42254957 247.48398958 134.52368164 225.84350586 C135.45036262 193.95359295 126.96388684 167.85465236 104.96704102 144.47485352 C86.70658897 125.6100948 61.63808638 114.50593769 35.33813477 113.94677734 C3.70885492 113.6644912 -24.30948682 124.02956348 -45.99926758 147.82470703 Z M-7.60083008 330.29052734 C-7.69347822 340.78245686 -7.76456875 351.27428919 -7.80807877 361.76654434 C-7.82896064 366.6384551 -7.85728922 371.51008616 -7.90258789 376.38183594 C-7.94602427 381.08267723 -7.96996267 385.78324935 -7.98033905 390.48427582 C-7.9877344 392.27847278 -8.00217575 394.07265488 -8.02375031 395.86673737 C-8.05275545 398.37844262 -8.05678737 400.88903333 -8.05493164 403.40087891 C-8.06931274 404.14390762 -8.08369385 404.88693634 -8.09851074 405.65248108 C-8.07138806 409.04140051 -7.84756897 410.95329691 -5.82244873 413.72113037 C-1.8010582 416.56192311 1.71408363 416.41893538 6.55712891 416.43579102 C8.42442909 416.44536079 8.42442909 416.44536079 10.32945251 416.4551239 C11.6847225 416.45665261 13.03999302 416.45776656 14.39526367 416.45849609 C15.7900445 416.46171101 17.18482498 416.46507526 18.5796051 416.46858215 C21.50066917 416.47456364 24.42170368 416.47642303 27.34277344 416.47583008 C31.07966784 416.47572844 34.81637231 416.48938682 38.5532217 416.50660229 C41.43318039 416.51773764 44.31309335 416.51974883 47.19307137 416.51922035 C48.57053342 416.52039791 49.94799676 416.52480711 51.32543755 416.53255272 C53.25420546 416.54238434 55.18302929 416.53820213 57.11181641 416.53344727 C58.20783676 416.53487228 59.30385712 416.5362973 60.43309021 416.5377655 C64.55490565 416.19419076 67.26518185 415.45147232 70.18939209 412.45774841 C71.58876879 409.950876 71.76847619 408.47127672 71.75561523 405.61499023 C71.76005646 404.22289337 71.76005646 404.22289337 71.7645874 402.80267334 C71.75228088 401.79964172 71.73997437 400.79661011 71.72729492 399.76318359 C71.7257843 398.71382629 71.72427368 397.66446899 71.72271729 396.58331299 C71.71335595 393.17295989 71.68186253 389.76322999 71.64916992 386.35302734 C71.63728271 384.02710365 71.62621579 381.70117563 71.6159668 379.37524414 C71.52296723 363.00236864 71.20945041 346.64483213 70.39916992 330.29052734 C69.05072998 330.59470581 69.05072998 330.59470581 67.67504883 330.9050293 C60.71913363 332.44087688 53.86566137 333.79998123 46.77416992 334.47802734 C45.66041992 334.60081055 45.66041992 334.60081055 44.52416992 334.72607422 C33.96574483 335.79813274 23.71260319 335.31834951 13.21166992 333.91552734 C12.1965332 333.78919922 11.18139648 333.66287109 10.13549805 333.53271484 C4.13038919 332.75836167 -1.70319546 331.64997348 -7.60083008 330.29052734 Z " fill="currentColor" transform="translate(218.600830078125,39.70947265625)"/>
<path d="M0 0 C0.7528125 -0.01289063 1.505625 -0.02578125 2.28125 -0.0390625 C5.63778272 0.96553356 6.63602246 2.70448395 8.5 5.625 C8.74461206 8.27586636 8.76935709 10.44384254 8.56982422 13.06030273 C8.49275031 14.58075454 8.41610019 16.10122787 8.33981323 17.62171936 C8.26826838 18.82626613 8.26826838 18.82626613 8.19527817 20.05514717 C7.9531461 24.36670433 7.8194935 28.68154213 7.68359375 32.99755859 C7.655128 33.89844617 7.62666225 34.79933374 7.59733391 35.72752094 C5.12612936 69.83121945 5.12612936 69.83121945 18.18649292 99.79899597 C23.66477728 105.32033288 29.92053753 110.02310477 36.6484375 113.91357422 C39.5 115.625 39.5 115.625 40.5 117.625 C40.90191848 121.24226636 40.70108852 123.22282296 39.0625 126.5 C35.83306119 129.17807121 34.03757058 129.27768511 29.94116211 129.16522217 C25.13852276 128.10241187 22.2728038 124.50985675 19 121.0390625 C18.23824463 120.26694427 17.47648926 119.49482605 16.69165039 118.6993103 C14.27251394 116.23656648 11.88678281 113.74407017 9.5 111.25 C7.86531892 109.57873367 6.22861994 107.90943853 4.58984375 106.2421875 C1.60893456 103.19467977 -1.36630765 100.14231079 -4.31640625 97.06494141 C-4.90881104 96.44761139 -5.50121582 95.83028137 -6.11157227 95.19424438 C-9.20428731 91.69876126 -8.66191667 88.00986992 -8.67700195 83.58276367 C-8.68357315 82.75169601 -8.69014435 81.92062836 -8.69691467 81.06437683 C-8.71666566 78.30723994 -8.72831413 75.55015756 -8.73828125 72.79296875 C-8.74235678 71.85224329 -8.7464323 70.91151783 -8.75063133 69.94228554 C-8.77149956 64.96339766 -8.78579813 59.98453741 -8.79516602 55.00561523 C-8.80623326 49.86056696 -8.84063463 44.71595085 -8.88033772 39.57105541 C-8.90647155 35.61708263 -8.91485497 31.66321332 -8.91844749 27.70916176 C-8.92332167 25.81253452 -8.93495924 23.91591215 -8.95348549 22.01936913 C-8.97780883 19.36437017 -8.97692455 16.71049596 -8.9699707 14.05541992 C-8.98918579 12.88085236 -8.98918579 12.88085236 -9.00878906 11.68255615 C-8.97318814 7.95215213 -8.62456636 5.82168896 -6.60929871 2.63960266 C-4.21124652 0.34920998 -3.26797027 -0.05595839 0 0 Z " fill="currentColor" transform="translate(250.5,167.375)"/>
</svg>
