<svg version="1.1" xmlns="http://www.w3.org/2000/svg" width="512" height="512" viewBox="0 0 512.000000 512.000000">
<path d="M0 0 C1.27510964 -0.00644889 2.55021928 -0.01289778 3.86396861 -0.0195421 C5.26640535 -0.01660026 6.66884169 -0.01346486 8.07127762 -0.01015663 C9.57090904 -0.01389529 11.07053852 -0.01849768 12.57016492 -0.02388728 C16.68330802 -0.03610606 20.79636972 -0.03585813 24.90952682 -0.03349853 C29.34865951 -0.03309007 33.7877662 -0.04413222 38.22688675 -0.05361366 C46.92121368 -0.07021857 55.61551349 -0.07572298 64.30985495 -0.07683842 C71.37815262 -0.07778915 78.44644134 -0.0819007 85.51473618 -0.08823967 C105.56052172 -0.10585083 125.60628586 -0.11507876 145.65207919 -0.11357872 C147.27270711 -0.11345885 147.27270711 -0.11345885 148.92607498 -0.11333656 C150.54868476 -0.11321392 150.54868476 -0.11321392 152.20407453 -0.1130888 C169.73345497 -0.11227598 187.26274947 -0.13141311 204.79210505 -0.1596133 C222.79687348 -0.18834943 240.80160001 -0.20215318 258.80639195 -0.20042574 C268.91239123 -0.19976209 279.01830042 -0.20524375 289.12427902 -0.22678185 C297.729076 -0.24500324 306.33374204 -0.2493331 314.93854997 -0.235763 C319.32678044 -0.22923815 323.7147598 -0.22909862 328.10296631 -0.2464695 C332.12500191 -0.26222678 336.14658782 -0.25930976 340.16861263 -0.24190123 C341.61879342 -0.23883716 343.06900799 -0.24244134 344.51914892 -0.25362138 C357.41935333 -0.346441 366.84482394 1.71348437 376.25419998 10.82367516 C384.01667289 19.29306328 386.79465137 27.01386849 386.75209427 38.33911705 C386.75662538 39.23163477 386.76115649 40.12415248 386.76582491 41.04371619 C386.7784459 44.02283125 386.77685002 47.00176295 386.77519608 49.98090172 C386.78118279 52.12169695 386.78798866 54.26249002 386.7955513 56.40328026 C386.81320465 62.2112819 386.81790643 68.0192246 386.81918287 73.82725048 C386.82060549 77.45848832 386.8248772 81.08971123 386.83017731 84.72094536 C386.84867589 97.39663709 386.85684819 110.07228678 386.8552742 122.74799156 C386.85407308 134.5512408 386.87517015 146.35430709 386.90676153 158.15751004 C386.93294091 168.3012723 386.94364078 178.44497486 386.94236338 188.58877063 C386.94185421 194.6426752 386.94751276 200.69641718 386.96871948 206.75028801 C386.98812951 212.44670127 386.9882072 218.1427973 386.97368622 223.83922195 C386.97160042 225.92448644 386.97628524 228.00977093 386.98840714 230.09500122 C387.12564913 255.3484835 387.12564913 255.3484835 377.48466873 265.25726891 C378.13693436 265.73035484 378.78919998 266.20344078 379.46123123 266.69086266 C380.33521561 267.35215172 381.20919998 268.01344078 382.10966873 268.69476891 C382.96818436 269.33285484 383.82669998 269.97094078 384.71123123 270.62836266 C391.39740991 276.96610667 395.02910367 285.13368757 398.57451248 293.49945641 C399.03656082 294.56922722 399.49860916 295.63899803 399.97465897 296.74118614 C401.46637837 300.20100409 402.94507365 303.66618483 404.42216873 307.13226891 C405.44648387 309.52441265 406.47130812 311.91633845 407.49663162 314.30805016 C409.03592525 317.89898957 410.57447589 321.49022569 412.10916519 325.0831356 C415.11600779 332.11232744 418.18688637 339.10767678 421.32841873 346.07758141 C422.37145521 348.41568762 423.41237949 350.75471869 424.45222855 353.094244 C425.08906697 354.51443195 425.73391332 355.93106141 426.38747025 357.34363365 C431.33424731 368.04929922 433.37459012 377.3619594 430.04716873 388.94476891 C426.22619024 398.17431554 418.4081242 405.84030767 409.48466873 410.25726891 C404.4350377 411.94989108 399.8508652 412.54528498 394.56377411 412.51453781 C393.79247111 412.51804389 393.02116811 412.52154996 392.22649229 412.52516228 C389.64469306 412.53445832 387.06312029 412.52955762 384.4813118 412.52469444 C382.6104488 412.52843161 380.73958736 412.53303339 378.8687284 412.53842509 C373.72944818 412.55066231 368.59023303 412.55039376 363.45094156 412.54803634 C357.90750658 412.54762835 352.36409251 412.55866555 346.82066727 412.56815147 C335.96062906 412.58476641 325.10061256 412.59026124 314.24056271 412.59137623 C305.41311222 412.59232647 296.58566889 412.59643556 287.75822067 412.60277748 C266.80445922 412.61752502 245.85070164 412.62982707 224.89693451 412.62878036 C224.22695547 412.62874921 223.55697642 412.62871805 222.86669498 412.62868595 C219.47104498 412.62851974 216.07539499 412.62832165 212.67974499 412.62811653 C212.00536993 412.62807664 211.33099487 412.62803675 210.6361842 412.62799565 C209.27243352 412.62791478 207.90868283 412.62783118 206.54493214 412.62774487 C185.32982994 412.62651951 164.11479169 412.64153033 142.89970779 412.66889 C119.05843687 412.6996239 95.21720762 412.71679637 71.37591147 412.71496356 C58.7548086 412.71429947 46.13377785 412.7197998 33.5126915 412.74131966 C22.76693107 412.75952448 12.02127545 412.76388447 1.27550629 412.75030081 C-4.2063498 412.7437677 -9.68800477 412.74366655 -15.16984177 412.76100731 C-20.19107543 412.77672757 -25.21194835 412.77388486 -30.23317316 412.75643905 C-32.04674278 412.75336688 -33.86033926 412.75700969 -35.67387721 412.7681592 C-49.45497067 412.84725277 -59.93384424 411.71275476 -70.28486252 401.69086266 C-78.1546881 393.10434543 -80.88944999 385.36696412 -80.81272507 373.73975182 C-80.33759641 368.17599279 -78.3432311 363.64733539 -76.01142502 358.62445641 C-75.54115891 357.56016411 -75.07089279 356.49587181 -74.58637619 355.39932823 C-73.06393396 351.96662657 -71.50899588 348.54979646 -69.95283127 345.13226891 C-68.89388057 342.7625679 -67.83733662 340.39178998 -66.78315353 338.01996422 C-64.68313992 333.29852006 -62.57296114 328.58181808 -60.45673752 323.86762047 C-57.8530455 318.04479922 -55.32933856 312.19248008 -52.85908127 306.31195641 C-52.51708191 305.49971611 -52.17508255 304.68747581 -51.82271957 303.85062218 C-50.56478798 300.85888169 -49.30870083 297.86648926 -48.06681442 294.86804771 C-39.91405434 275.2157793 -39.91405434 275.2157793 -31.14033127 268.69476891 C-30.26634689 268.03347984 -29.39236252 267.37219078 -28.49189377 266.69086266 C-27.83962814 266.21777672 -27.18736252 265.74469078 -26.51533127 265.25726891 C-26.91365158 264.78418297 -27.31197189 264.31109703 -27.72236252 263.82367516 C-28.25216721 263.16238609 -28.78197189 262.50109703 -29.32783127 261.81976891 C-29.84990158 261.18168297 -30.37197189 260.54359703 -30.90986252 259.88617516 C-34.94577742 253.27748725 -35.95898625 246.55711955 -35.90301132 238.93491173 C-35.90839686 238.04068516 -35.9137824 237.14645859 -35.91933113 236.22513425 C-35.93354909 233.2521414 -35.92652224 230.27959768 -35.919384 227.30658531 C-35.92509081 225.16549384 -35.93205627 223.02440542 -35.94018173 220.88332176 C-35.95809442 215.08367028 -35.95694819 209.28417027 -35.95123935 203.48449945 C-35.94814459 198.63619826 -35.9542432 193.78792603 -35.96027809 188.93962896 C-35.9743157 177.49828381 -35.97276854 166.05701335 -35.96137619 154.61566734 C-35.94989725 142.8271359 -35.96396877 131.03883202 -35.99077266 119.25033057 C-36.01295163 109.11501296 -36.01956203 98.97976666 -36.01369625 88.84442651 C-36.01033057 82.79726866 -36.01271599 76.75025664 -36.02994728 70.70311928 C-36.04544908 65.01487275 -36.04142471 59.32696249 -36.02264214 53.6387291 C-36.01896516 51.5566934 -36.02203858 49.47463261 -36.03252792 47.39262009 C-36.10054413 32.77061112 -35.62086948 21.51015648 -24.94892502 10.48773766 C-17.48680164 3.64845603 -10.31930425 0.01325132 0 0 Z M-13.92548752 22.71039391 C-20.31978479 30.09273128 -20.6686037 37.12620642 -20.64904404 46.66922569 C-20.65130959 47.4896506 -20.65357515 48.3100755 -20.65590936 49.15536177 C-20.66221348 51.89035446 -20.66142231 54.62529713 -20.66059494 57.36029625 C-20.66358864 59.32699713 -20.66699166 61.29369743 -20.67077255 63.26039696 C-20.67959458 68.59306444 -20.68194989 73.92571587 -20.68258834 79.25838995 C-20.68329978 82.59211042 -20.68543588 85.92582682 -20.68808556 89.25954628 C-20.69733255 100.89550854 -20.70142119 112.53145935 -20.700634 124.16742516 C-20.70003316 135.00499527 -20.71058787 145.84251562 -20.72637767 156.68007314 C-20.73946183 165.99323141 -20.74481754 175.30637342 -20.74417859 184.61954081 C-20.74392389 190.1781366 -20.74675978 195.73668813 -20.75735664 201.29527473 C-20.7670525 206.52376537 -20.76710657 211.75216958 -20.75984001 216.9806633 C-20.75879607 218.89583335 -20.76114571 220.81100882 -20.76720047 222.72616959 C-20.77495033 225.34799547 -20.77025591 227.96952505 -20.76256943 230.59134483 C-20.76771299 231.34243503 -20.77285655 232.09352523 -20.77815598 232.86737573 C-20.72708932 240.79327652 -19.651673 247.9795179 -14.51533127 254.25726891 C-7.72297477 260.83051713 -1.69826766 262.37964468 7.63545418 262.38590336 C9.46430572 262.39074003 9.46430572 262.39074003 11.33010375 262.39567441 C12.67466548 262.39420343 14.0192271 262.39263572 15.3637886 262.39098167 C16.79869653 262.39285061 18.23360395 262.39515164 19.66851056 262.397847 C23.60726307 262.40396116 27.54599434 262.40383185 31.48475051 262.40265262 C35.73432985 262.40244852 39.98390238 262.40796824 44.23347855 262.41271019 C52.55729113 262.421015 60.88109663 262.42376495 69.20491301 262.42432257 C75.97053049 262.42479777 82.73614564 262.42685273 89.50176239 262.43002319 C108.68324926 262.438829 127.86473054 262.44344264 147.04621945 262.44269272 C148.08019971 262.44265276 149.11417996 262.44261281 150.17949295 262.44257164 C151.2147354 262.44253076 152.24997785 262.44248988 153.31659128 262.44244776 C170.09791762 262.44204122 186.87922154 262.45161292 203.6605414 262.46571001 C220.89120066 262.48007038 238.12184899 262.48698039 255.35251439 262.48611623 C265.02636546 262.48578416 274.70019301 262.48853559 284.3740387 262.49929428 C292.60964432 262.50839477 300.84521577 262.51057821 309.08082424 262.50378486 C313.28228379 262.50051749 317.48367774 262.50047082 321.68513107 262.50913811 C325.53299654 262.51699433 329.38074427 262.51558067 333.22860684 262.50685398 C334.61887071 262.50531706 336.00914333 262.50714236 337.39939688 262.51271405 C351.34802908 262.57927775 351.34802908 262.57927775 363.48466873 256.25726891 C370.95570505 248.55858329 371.63983878 241.31416096 371.6183815 230.84531212 C371.62064706 230.02488721 371.62291261 229.20446231 371.62524682 228.35917604 C371.63155094 225.62418336 371.63075978 222.88924068 371.6299324 220.15424156 C371.63292611 218.18754068 371.63632912 216.22084038 371.64011002 214.25414085 C371.64893205 208.92147337 371.65128736 203.58882194 371.6519258 198.25614786 C371.65263725 194.92242739 371.65477335 191.58871099 371.65742302 188.25499153 C371.66667002 176.61902928 371.67075865 164.98307846 371.66997147 153.34711266 C371.66937063 142.50954254 371.67992533 131.67202219 371.69571513 120.83446467 C371.70879929 111.5213064 371.714155 102.20816439 371.71351606 92.894997 C371.71326136 87.33640122 371.71609724 81.77784969 371.72669411 76.21926308 C371.73638997 70.99077244 371.73644403 65.76236824 371.72917747 60.53387451 C371.72813354 58.61870446 371.73048317 56.70352899 371.73653793 54.78836823 C371.74428779 52.16654234 371.73959337 49.54501276 371.73190689 46.92319298 C371.73962224 45.79655768 371.73962224 45.79655768 371.74749345 44.64716208 C371.69642678 36.72126129 370.62101047 29.53501992 365.48466873 23.25726891 C358.69231224 16.68402068 352.66760513 15.13489313 343.33388329 15.12863445 C341.50503174 15.12379778 341.50503174 15.12379778 339.63923371 15.1188634 C338.29467199 15.12033439 336.95011037 15.12190209 335.60554886 15.12355614 C334.17064093 15.12168721 332.73573352 15.11938617 331.30082691 15.11669081 C327.3620744 15.11057665 323.42334313 15.11070596 319.48458695 15.11188519 C315.23500762 15.11208929 310.98543508 15.10656957 306.73585892 15.10182762 C298.41204634 15.09352281 290.08824084 15.09077286 281.76442446 15.09021524 C274.99880697 15.08974004 268.23319182 15.08768508 261.46757507 15.08451462 C242.2860882 15.07570882 223.10460692 15.07109517 203.92311801 15.07184509 C202.88913776 15.07188505 201.8551575 15.071925 200.78984451 15.07196617 C199.75460206 15.07200705 198.71935962 15.07204793 197.65274619 15.07209005 C180.87141984 15.07249659 164.09011592 15.06292489 147.30879606 15.0488278 C130.0781368 15.03446743 112.84748848 15.02755742 95.61682308 15.02842158 C85.942972 15.02875365 76.26914445 15.02600223 66.59529877 15.01524353 C58.35969314 15.00614304 50.1241217 15.0039596 41.88851322 15.01075295 C37.68705367 15.01402032 33.48565972 15.01406699 29.28420639 15.0053997 C25.43634093 14.99754348 21.58859319 14.99895714 17.74073063 15.00768384 C16.35046676 15.00922075 14.96019414 15.00739545 13.56994058 15.00182376 C-1.48397021 14.89294728 -1.48397021 14.89294728 -13.92548752 22.71039391 Z M-24.51533127 284.25726891 C-29.08885765 290.26409253 -31.86000425 297.27023184 -34.75361252 304.18305016 C-35.23807343 305.3252552 -35.72253433 306.46746025 -36.22167587 307.64427757 C-37.76344316 311.2834471 -39.29577057 314.92650393 -40.82783127 318.56976891 C-41.84478946 320.97432806 -42.86236231 323.37862736 -43.88056564 325.78265953 C-45.85220616 330.4407505 -47.81835192 335.10109513 -49.77949142 339.76361656 C-51.51881425 343.89798744 -53.26754711 348.02806832 -55.02851486 352.153265 C-55.40638641 353.04128304 -55.78425797 353.92930107 -56.17358017 354.84422874 C-56.8682036 356.47581138 -57.56547589 358.10626988 -58.26589584 359.73537254 C-59.93011833 363.36723334 -59.93011833 363.36723334 -60.51533127 367.25726891 C95.24466873 367.25726891 251.00466873 367.25726891 411.48466873 367.25726891 C409.00758129 359.78773847 409.00758129 359.78773847 406.14384842 352.53241539 C405.70619156 351.50361763 405.2685347 350.47481987 404.81761551 349.41484642 C404.35196182 348.33030678 403.88630814 347.24576714 403.40654373 346.12836266 C402.91688126 344.98045753 402.42721878 343.83255241 401.92271805 342.64986229 C400.62596767 339.61198706 399.3261039 336.57546977 398.02476883 333.5395565 C396.72328903 330.50075951 395.42658247 327.45992633 394.12919998 324.41937828 C391.68530771 318.69501409 389.2300011 312.97563711 386.7705574 307.25794029 C385.61436819 304.55992766 384.46988424 301.85737463 383.33037186 299.15228844 C382.72049893 297.71976881 382.11048714 296.2873083 381.50029373 294.85492516 C381.00303787 293.67551353 380.50578201 292.49610191 379.99345779 291.28095055 C377.57799387 286.44025141 374.87694103 283.08326867 370.10966873 280.50726891 C369.01525467 279.89625328 369.01525467 279.89625328 367.89873123 279.27289391 C363.09776838 277.25307135 358.17529849 277.13190117 353.02432919 277.12863445 C351.73604361 277.12541001 350.44775804 277.12218556 349.12043351 277.1188634 C347.69795579 277.12033442 346.27547816 277.12190213 344.85300064 277.12355614 C343.33630943 277.12168738 341.81961871 277.11938642 340.30292875 277.11669081 C336.1380757 277.11057437 331.97324272 277.11070623 327.80838621 277.11188519 C323.31543186 277.11208923 318.82248396 277.10657008 314.32953262 277.10182762 C305.52812575 277.09352139 296.72672557 277.09077279 287.9253151 277.09021524 C280.77116692 277.08974008 273.61702094 277.0876853 266.46287346 277.08451462 C246.17970174 277.07570817 225.89653532 277.07109523 205.61336168 277.07184509 C203.97317552 277.07190503 203.97317552 277.07190503 202.29985428 277.07196617 C201.20506185 277.07200705 200.11026941 277.07204793 198.98230145 277.07209005 C181.23813875 277.07249654 163.49399726 277.06292639 145.7498407 277.0488278 C127.53041584 277.03446582 109.31100134 277.02755752 91.09157068 277.02842158 C80.8626871 277.02875361 70.63382576 277.02600398 60.40494728 277.01524353 C51.69616123 277.00614088 42.98740752 277.00396136 34.27861878 277.01075295 C29.83602991 277.01401932 25.39350308 277.01407061 20.9509201 277.0053997 C16.88157058 276.997539 12.81233233 276.99896176 8.74298552 277.00768384 C7.27329661 277.00921976 5.80359941 277.00739916 4.33392026 277.00182376 C-11.34005877 276.73354512 -11.34005877 276.73354512 -24.51533127 284.25726891 Z M-63.51533127 382.25726891 C-60.93018943 387.74374043 -60.93018943 387.74374043 -57.07783127 391.50726891 C-56.50162033 391.98680016 -55.92540939 392.46633141 -55.33173752 392.96039391 C-49.25431753 397.29954108 -42.71530702 397.38308762 -35.40951157 397.37752342 C-34.72974445 397.37837785 -34.04997734 397.37923227 -33.34961122 397.38011259 C-31.09110299 397.38174859 -28.83267045 397.37627707 -26.57416916 397.3707943 C-24.94754157 397.37051199 -23.32091386 397.370671 -21.69428635 397.3712368 C-17.29193747 397.37152309 -12.88961598 397.36565359 -8.48727345 397.35866284 C-3.88151009 397.35240125 0.72425394 397.35182329 5.3300209 397.35063744 C14.04566337 397.34753239 22.76129326 397.33933015 31.4769302 397.32928795 C41.40193221 397.31810114 51.32693482 397.31260989 61.25194156 397.30759251 C81.66285782 397.29714684 102.07376204 397.2793614 122.48466873 397.25726891 C122.48466873 392.30726891 122.48466873 387.35726891 122.48466873 382.25726891 C61.10466873 382.25726891 -0.27533127 382.25726891 -63.51533127 382.25726891 Z M138.48466873 382.25726891 C138.48466873 387.20726891 138.48466873 392.15726891 138.48466873 397.25726891 C162.90466873 397.25726891 187.32466873 397.25726891 212.48466873 397.25726891 C212.48466873 392.30726891 212.48466873 387.35726891 212.48466873 382.25726891 C188.06466873 382.25726891 163.64466873 382.25726891 138.48466873 382.25726891 Z M228.48466873 382.25726891 C228.48466873 387.20726891 228.48466873 392.15726891 228.48466873 397.25726891 C249.84255142 397.30360418 271.20042197 397.33927731 292.55834484 397.36089325 C302.47561672 397.37119751 312.39285675 397.38524161 322.31010818 397.40814781 C330.9558839 397.42810769 339.60163656 397.44099152 348.24743468 397.4454459 C352.82357582 397.44804887 357.39965099 397.45414931 361.97577095 397.46872902 C366.2873589 397.48235397 370.59885399 397.48648164 374.91046143 397.48348427 C376.48860492 397.48403224 378.06675168 397.48798032 379.64487648 397.49567986 C395.01776484 397.83652464 395.01776484 397.83652464 408.48466873 391.25726891 C411.17595757 388.47845848 413.24236453 385.98418152 414.48466873 382.25726891 C353.10466873 382.25726891 291.72466873 382.25726891 228.48466873 382.25726891 Z " fill="currentColor" transform="translate(80.51533126831055,49.74273109436035)"/>
<path d="M0 0 C1.13851158 -0.00081176 2.27702316 -0.00162352 3.4500351 -0.00245988 C4.76528923 -0.01549862 6.08054337 -0.02853736 7.43565369 -0.04197121 C8.89890633 -0.03116044 10.36215554 -0.01987714 11.82540131 -0.00817239 C13.37693701 -0.01393134 14.9284659 -0.02187093 16.47998047 -0.03180861 C20.7503971 -0.05273677 25.02025713 -0.04233996 29.29067612 -0.02687752 C33.89335456 -0.0155922 38.49593543 -0.03301267 43.09859467 -0.04677713 C52.11790821 -0.06904429 61.13701405 -0.06419289 70.15633583 -0.04971392 C77.48459965 -0.03843534 84.81280514 -0.03688479 92.14107513 -0.04233301 C93.7038336 -0.04348225 93.7038336 -0.04348225 95.29816294 -0.04465472 C97.41444589 -0.0462533 99.53072883 -0.04787436 101.64701176 -0.04951768 C121.50502005 -0.06378537 141.36291306 -0.04736645 161.22090244 -0.02051584 C178.27076711 0.00182385 195.32046159 -0.002056 212.37032318 -0.02510965 C232.15585128 -0.05184964 251.94127826 -0.06241198 271.7268219 -0.04704833 C273.83544666 -0.04545554 275.94407144 -0.04388368 278.05269623 -0.04233301 C279.09025889 -0.04156163 280.12782155 -0.04079025 281.1968255 -0.0399955 C288.51876147 -0.03567309 295.84063345 -0.04297668 303.16255951 -0.05473077 C312.08204629 -0.06873432 321.00131299 -0.0650011 329.92077446 -0.03832705 C334.4742202 -0.02515989 339.02729862 -0.02008559 343.58074188 -0.03657281 C347.74573472 -0.05142577 351.91001831 -0.04336205 356.0749464 -0.01668505 C357.58497507 -0.01108017 359.09506314 -0.01398533 360.6050539 -0.02606399 C362.65124064 -0.04118158 364.69759423 -0.02274426 366.74373627 -0.00245988 C368.45150364 -0.00124224 368.45150364 -0.00124224 370.19377136 0 C373.09688568 0.62674582 373.09688568 0.62674582 375.39772034 2.97590089 C377.27957988 5.91176458 378.702712 8.82345416 380.07735443 12.02908957 C380.33567551 12.62927405 380.59399658 13.22945853 380.86014557 13.84783041 C381.40080365 15.10933862 381.93759319 16.37251125 382.47066498 17.63724387 C383.28250716 19.55979722 384.10961488 21.47523944 384.93868256 23.3904177 C385.46499813 24.62374735 385.99041908 25.85745924 386.51485443 27.09158957 C387.22291229 28.75629294 387.22291229 28.75629294 387.94527435 30.45462668 C389.07534166 33.5674027 389.79592295 36.33069508 390.09688568 39.62674582 C388.95908696 41.95406138 387.92847854 43.79515296 386.09688568 45.62674582 C384.28051762 45.72695944 382.4602062 45.75598676 380.64107704 45.75817358 C378.85388368 45.7639353 378.85388368 45.7639353 377.03058541 45.76981342 C375.69144887 45.76903304 374.35231238 45.76815422 373.01317596 45.76718771 C371.60376843 45.76976914 370.19436163 45.77278167 368.78495586 45.77619112 C364.89366515 45.78429059 361.00239285 45.78605232 357.11109471 45.78678858 C352.92150832 45.78863403 348.7319316 45.79617876 344.54235077 45.8029238 C335.37308081 45.81652845 326.20381521 45.82253512 317.03453684 45.82693446 C311.31388283 45.82969323 305.59323053 45.83392989 299.87257767 45.83843863 C284.04718698 45.85063397 268.22179765 45.86093283 252.39640236 45.86431372 C250.8759525 45.86464307 250.8759525 45.86464307 249.32478648 45.86497907 C248.30866874 45.86519735 247.29255101 45.86541563 246.24564183 45.86564052 C244.18645358 45.86608399 242.12726533 45.86653056 240.06807709 45.8669802 C239.04663927 45.86720162 238.02520145 45.86742305 236.97281097 45.86765119 C220.41410667 45.87160096 203.85544633 45.88905922 187.29675902 45.91233972 C170.31375475 45.93602491 153.33077256 45.94851427 136.3477515 45.94968164 C126.8053154 45.95059999 117.26293657 45.95639233 107.7205162 45.97450125 C99.59625907 45.98986407 91.4720769 45.99504539 83.34780802 45.98676315 C79.1996271 45.98284306 75.0515973 45.98385201 70.90343475 45.9978205 C67.10986182 46.01047859 63.31655484 46.00943395 59.5229827 45.99722978 C58.14678816 45.99525863 56.77057529 45.99841598 55.39440657 46.00707415 C53.53109353 46.01805979 51.66769377 46.0089435 49.8043766 45.99868262 C48.76714301 45.99927971 47.72990942 45.99987679 46.66124451 46.00049198 C44.09688568 45.62674582 44.09688568 45.62674582 42.294855 44.28318727 C40.46244697 41.7495025 40.22089305 39.72693015 40.09688568 36.62674582 C41.2346844 34.29943026 42.26529282 32.45833868 44.09688568 30.62674582 C45.82753333 30.52940283 47.56219599 30.50303105 49.29557896 30.50369799 C50.99672087 30.50071142 50.99672087 30.50071142 52.73222929 30.49766451 C54.62469732 30.50203377 54.62469732 30.50203377 56.55539703 30.5064913 C57.89682041 30.50605572 59.23824371 30.50518105 60.57966655 30.50390214 C64.28292946 30.50165466 67.98616372 30.50568189 71.68942297 30.5106802 C75.67649105 30.51498092 79.66355739 30.51353855 83.65062714 30.51277792 C90.56418557 30.51225245 97.4777346 30.51540171 104.39129066 30.52101576 C114.38724942 30.52912757 124.3832036 30.53174565 134.37916528 30.53300375 C150.59521464 30.53519478 166.81125897 30.54185623 183.0273056 30.55130637 C198.78381576 30.56047918 214.54032456 30.56756065 230.29683685 30.57181418 C231.26734769 30.5720769 232.23785853 30.57233963 233.23777879 30.57261031 C238.10633131 30.57391531 242.97488383 30.57517902 247.84343636 30.57642221 C288.26125633 30.5867964 328.67907064 30.60449018 369.09688568 30.62674582 C367.11688568 26.00674582 365.13688568 21.38674582 363.09688568 16.62674582 C245.61688568 16.62674582 128.13688568 16.62674582 7.09688568 16.62674582 C5.11688568 21.24674582 3.13688568 25.86674582 1.09688568 30.62674582 C2.65020599 30.58033957 4.20352631 30.53393332 5.80391693 30.48612082 C7.83905399 30.44860677 9.8742118 30.41220622 11.90938568 30.37674582 C12.93354584 30.3432302 13.95770599 30.30971457 15.01290131 30.27518332 C15.99581146 30.2622927 16.97872162 30.24940207 17.99141693 30.23612082 C18.89738617 30.21517355 19.80335541 30.19422629 20.73677826 30.17264426 C23.09688568 30.62674582 23.09688568 30.62674582 24.88863373 32.43240988 C26.66947504 35.66663937 26.5500811 38.00118244 26.09688568 41.62674582 C24.60689545 43.81448996 24.60689545 43.81448996 22.09688568 45.62674582 C19.10408238 46.01226646 16.488086 46.1647504 13.49922943 46.12283957 C12.25321709 46.12502242 12.25321709 46.12502242 10.98203278 46.12724936 C9.22950984 46.1255922 7.47697207 46.1140513 5.72457123 46.09329855 C3.04010626 46.0643076 0.35761219 46.07269957 -2.32694244 46.0857302 C-4.03072809 46.07949362 -5.73450751 46.07110331 -7.43827057 46.06033957 C-8.64302788 46.06474303 -8.64302788 46.06474303 -9.87212372 46.06923544 C-15.30514897 45.9770622 -15.30514897 45.9770622 -17.86966705 44.47464621 C-19.38950284 41.75703765 -19.75975482 39.75142151 -19.90311432 36.62674582 C-19.15048679 34.07381443 -18.35696083 31.85033956 -17.29764557 29.43533957 C-17.01716873 28.76761023 -16.73669189 28.09988089 -16.44771576 27.41191733 C-15.85360617 26.00630139 -15.25224261 24.6037319 -14.64408112 23.2041384 C-13.71988403 21.07408648 -12.82061815 18.93479642 -11.92459869 16.79276145 C-11.34206118 15.42300459 -10.75812229 14.0538427 -10.17264557 12.68533957 C-9.772369 11.73515196 -9.772369 11.73515196 -9.36400604 10.76576865 C-5.13404617 1.10837591 -5.13404617 1.10837591 0 0 Z " fill="currentColor" transform="translate(70.90311431884766,341.37325417995453)"/>
</svg>
