
<svg version="1.1" xmlns="http://www.w3.org/2000/svg" width="512" height="512" viewBox="0 0 512.000000 512.000000">
<path d="M0 0 C1.31483246 -0.00538554 2.62966492 -0.01077108 3.98434079 -0.01631981 C7.61414857 -0.030722 11.24372828 -0.0265462 14.87354827 -0.019153 C18.79594896 -0.0144106 22.71830107 -0.02694066 26.64068604 -0.03717041 C34.31740724 -0.05434296 41.99404653 -0.05520161 49.67078196 -0.04995751 C55.91237712 -0.04591158 62.15394813 -0.04736438 68.39554214 -0.05270576 C69.2848131 -0.05345419 70.17408406 -0.05420261 71.09030262 -0.05497371 C72.89701978 -0.05650523 74.70373693 -0.05804358 76.51045407 -0.05958868 C93.44340591 -0.07330821 110.37631151 -0.06787994 127.30926229 -0.05640347 C142.78863576 -0.04647235 158.26788967 -0.05941062 173.7472447 -0.08333766 C189.65477974 -0.10774063 205.56225913 -0.11733354 221.46981251 -0.11068493 C230.39535507 -0.10719529 239.3208057 -0.10940792 248.24633408 -0.12693596 C255.84465624 -0.14167295 263.44282176 -0.14227388 271.0411409 -0.12486505 C274.91497403 -0.11636483 278.78852749 -0.11418129 282.66234589 -0.1295166 C286.86871015 -0.14596169 291.07440245 -0.1311889 295.28076172 -0.11352539 C296.49546674 -0.1231304 297.71017175 -0.1327354 298.96168602 -0.14263147 C312.7815073 -0.02344765 322.76397534 5.00342099 332.837677 14.2978363 C344.47139336 26.56108276 345.06631193 41.86825771 345.02806091 57.78961182 C345.03108356 59.57074239 345.03497362 61.35187166 345.03965348 63.13299865 C345.0499276 68.01499947 345.04775313 72.89692681 345.04347289 77.77893364 C345.0410046 83.04900091 345.05002113 88.31905053 345.05751038 93.58911133 C345.07025668 103.90912293 345.07205114 114.22910851 345.06971011 124.54912666 C345.06792666 132.9384007 345.06967718 141.32766684 345.07393456 149.71693993 C345.07452974 150.9112119 345.07512493 152.10548387 345.07573816 153.3359459 C345.07694992 155.76216732 345.07816405 158.18838874 345.07938053 160.61461016 C345.09025588 183.36567584 345.08809365 206.1167267 345.08199569 228.86779322 C345.07682695 249.67488162 345.08808085 270.4819232 345.10709391 291.28900234 C345.12647249 312.66014416 345.13472824 334.03126383 345.13097066 355.4024145 C345.12905859 367.39808136 345.13154669 379.39370837 345.1456852 391.38936806 C345.15760022 401.60181057 345.1590025 411.81418871 345.14689503 422.02663211 C345.14100715 427.23518349 345.13990448 432.44361712 345.15189743 437.65216064 C345.16275867 442.42474554 345.1596499 447.19711441 345.14563575 451.96968921 C345.14298949 453.69169488 345.14535308 455.41371749 345.15337161 457.13570652 C345.22616488 473.9411476 342.81897958 487.58890638 331.06814575 500.24705505 C320.43715495 510.13802782 309.67433287 512.84506319 295.534729 512.77536011 C294.21989654 512.78074565 292.90506408 512.78613118 291.55038822 512.79167992 C287.92058044 512.8060821 284.29100072 512.8019063 280.66118073 512.79451311 C276.73878005 512.7897707 272.81642794 512.80230076 268.89404297 512.81253052 C261.21732177 512.82970307 253.54068247 512.83056171 245.86394705 512.82531761 C239.62235188 512.82127169 233.38078087 512.82272449 227.13918686 512.82806587 C226.2499159 512.82881429 225.36064494 512.82956272 224.44442638 512.83033382 C222.63770922 512.83186534 220.83099207 512.83340369 219.02427493 512.83494879 C202.09132309 512.84866832 185.15841749 512.84324005 168.22546671 512.83176357 C152.74609325 512.82183246 137.26683933 512.83477073 121.7874843 512.85869776 C105.87994926 512.88310074 89.97246987 512.89269365 74.06491649 512.88604504 C65.13937394 512.88255539 56.2139233 512.88476803 47.28839493 512.90229607 C39.69007276 512.91703305 32.09190725 512.91763399 24.4935881 512.90022516 C20.61975498 512.89172494 16.74620151 512.8895414 12.87238312 512.90487671 C8.66601886 512.9213218 4.46032656 512.906549 0.25396729 512.8888855 C-0.96073773 512.8984905 -2.17544275 512.90809551 -3.42695701 512.91799158 C-17.2467783 512.79880776 -27.22924633 507.77193911 -37.302948 498.4775238 C-48.93666435 486.21427734 -49.53158293 470.90710239 -49.49333191 454.98574829 C-49.49635456 453.20461772 -49.50024461 451.42348845 -49.50492448 449.64236146 C-49.5151986 444.76036064 -49.51302413 439.8784333 -49.50874388 434.99642646 C-49.50627559 429.7263592 -49.51529212 424.45630957 -49.52278137 419.18624878 C-49.53552767 408.86623718 -49.53732213 398.54625159 -49.53498111 388.22623345 C-49.53319766 379.83695941 -49.53494818 371.44769327 -49.53920555 363.05842018 C-49.53980074 361.86414821 -49.54039593 360.66987624 -49.54100915 359.43941421 C-49.54222091 357.01319279 -49.54343505 354.58697137 -49.54465153 352.16074995 C-49.55552688 329.40968426 -49.55336464 306.6586334 -49.54726668 283.90756688 C-49.54209795 263.10047848 -49.55335185 242.29343691 -49.5723649 221.48635777 C-49.59174348 200.11521595 -49.59999924 178.74409627 -49.59624165 157.37294561 C-49.59432959 145.37727875 -49.59681769 133.38165174 -49.61095619 121.38599205 C-49.62287122 111.17354954 -49.6242735 100.9611714 -49.61216602 90.748728 C-49.60627815 85.54017662 -49.60517548 80.33174299 -49.61716843 75.12319946 C-49.62802967 70.35061457 -49.6249209 65.5782457 -49.61090674 60.80567089 C-49.60826049 59.08366523 -49.61062408 57.36164262 -49.61864261 55.63965359 C-49.69143588 38.8342125 -47.28425057 25.18645373 -35.53341675 12.52830505 C-24.90242595 2.63733229 -14.13960387 -0.06970308 0 0 Z M-26.2326355 31.38768005 C-29.7807237 37.5150058 -30.35732544 43.67248372 -30.36406326 50.62798595 C-30.3661159 51.3500064 -30.36816853 52.07202685 -30.37028337 52.8159267 C-30.37595033 55.24205786 -30.37449649 57.66813219 -30.37307739 60.0942688 C-30.3756612 61.84862277 -30.37867441 63.60297615 -30.38208079 65.35732871 C-30.39015218 70.18379922 -30.39194044 75.01025486 -30.39267826 79.83673131 C-30.39452857 85.04002302 -30.40207579 90.243307 -30.40881348 95.44659424 C-30.42239823 106.8267709 -30.42842172 118.20694403 -30.43282413 129.58712745 C-30.43558627 136.69215771 -30.43982357 143.79718661 -30.44432831 150.90221596 C-30.45652107 170.57171767 -30.46682043 190.24121828 -30.4702034 209.91072369 C-30.47042297 211.16973485 -30.47064253 212.42874602 -30.47086875 213.72590904 C-30.47108703 214.98794179 -30.47130531 216.24997454 -30.4715302 217.55025071 C-30.47197367 220.10763276 -30.47242023 222.6650148 -30.47286987 225.22239685 C-30.4730913 226.49094813 -30.47331273 227.75949941 -30.47354087 229.06649164 C-30.47748915 249.62298862 -30.49494405 270.17945016 -30.5182294 290.73593345 C-30.54193993 311.83799301 -30.55440511 332.94003478 -30.55557132 354.04210788 C-30.55648824 365.89133911 -30.56224482 377.74052415 -30.58039093 389.58974266 C-30.59578785 399.67936653 -30.60091476 409.76892994 -30.59265283 419.85856333 C-30.58874493 425.00608481 -30.58968287 430.15348454 -30.60371017 435.30099106 C-30.61644041 440.01564683 -30.61525921 444.73008924 -30.60311946 449.44474468 C-30.60116096 451.14799406 -30.60424799 452.85125851 -30.61296383 454.55448671 C-30.66876996 466.19967957 -30.65216248 476.77051693 -22.20529175 485.62986755 C-16.70267672 490.53318787 -11.43690591 493.50636679 -3.98757076 493.52469444 C-2.89397839 493.52976899 -1.80038603 493.53484353 -0.6736545 493.54007185 C0.53254355 493.5405696 1.73874159 493.54106736 2.98149109 493.5415802 C4.25923415 493.54596245 5.5369772 493.55034471 6.85343975 493.55485976 C10.40744885 493.56682934 13.96144436 493.57247461 17.51546967 493.57704091 C21.3459189 493.58299565 25.17635189 493.59460591 29.00679016 493.60533142 C38.26187274 493.62985985 47.5169607 493.64448398 56.77206579 493.65739149 C59.386262 493.66110334 62.00045767 493.66507659 64.61465335 493.66914415 C80.84882532 493.6943825 97.08299814 493.71643543 113.3171854 493.7288723 C117.0780036 493.731802 120.83882176 493.73476366 124.59963989 493.73777771 C126.00174004 493.73889679 126.00174004 493.73889679 127.43216544 493.74003847 C142.56988151 493.75268854 157.70748004 493.78590648 172.84514118 493.82757954 C188.38747579 493.87001574 203.92975025 493.89356935 219.47214264 493.89879286 C228.1982553 493.90220526 236.92418433 493.91394 245.65023994 493.9468956 C253.0829524 493.97492057 260.51544358 493.98588479 267.94820476 493.97470014 C271.73891514 493.96951952 275.52916231 493.97236063 279.31980515 493.99716568 C283.43497424 494.02386883 287.54912756 494.01157755 291.66435242 493.99568176 C292.85493541 494.00956385 294.0455184 494.02344594 295.27217966 494.03774869 C304.75886373 493.947545 311.65756268 491.42006071 318.7048645 485.01268005 C324.79797548 478.41778347 325.89033078 470.88222347 325.89879227 462.14737415 C325.9008449 461.42535371 325.90289753 460.70333326 325.90501237 459.95943341 C325.91067933 457.53330225 325.90922549 455.10722792 325.9078064 452.68109131 C325.9103902 450.92673734 325.91340341 449.17238396 325.9168098 447.41803139 C325.92488119 442.59156089 325.92666945 437.76510525 325.92740726 432.93862879 C325.92925757 427.73533709 325.93680479 422.53205311 325.94354248 417.32876587 C325.95712724 405.94858921 325.96315072 394.56841608 325.96755314 383.18823266 C325.97031527 376.0832024 325.97455257 368.97817349 325.97905731 361.87314415 C325.99125008 342.20364244 326.00154943 322.53414183 326.0049324 302.86463642 C326.00515197 301.60562525 326.00537154 300.34661409 326.00559776 299.04945106 C326.00581603 297.78741831 326.00603431 296.52538556 326.0062592 295.2251094 C326.00670267 292.66772735 326.00714923 290.1103453 326.00759888 287.55296326 C326.00782031 286.28441198 326.00804174 285.0158607 326.00826988 283.70886847 C326.01221815 263.15237149 326.02967305 242.59590995 326.0529584 222.03942666 C326.07666893 200.9373671 326.08913412 179.83532533 326.09030032 158.73325223 C326.09121724 146.884021 326.09697383 135.03483596 326.11511993 123.18561745 C326.13051686 113.09599358 326.13564377 103.00643016 326.12738183 92.91679678 C326.12347393 87.7692753 326.12441187 82.62187557 326.13843918 77.47436905 C326.15116941 72.75971327 326.14998822 68.04527087 326.13784847 63.33061542 C326.13588996 61.62736605 326.138977 59.9241016 326.14769283 58.22087339 C326.20349897 46.57568053 326.18689148 36.00484317 317.74002075 27.14549255 C312.23740573 22.24217223 306.97163491 19.26899332 299.52229977 19.25066566 C298.4287074 19.24559112 297.33511503 19.24051658 296.2083835 19.23528826 C295.00218546 19.23479051 293.79598741 19.23429275 292.55323792 19.23377991 C291.27549486 19.22939765 289.9977518 19.2250154 288.68128926 19.22050035 C285.12728016 19.20853077 281.57328464 19.2028855 278.01925933 19.1983192 C274.1888101 19.19236446 270.35837712 19.1807542 266.52793884 19.17002869 C257.27285626 19.14550026 248.0177683 19.13087613 238.76266322 19.11796862 C236.14846701 19.11425676 233.53427133 19.11028352 230.92007565 19.10621595 C214.68590368 19.08097761 198.45173087 19.05892468 182.2175436 19.04648781 C178.45672541 19.04355811 174.69590724 19.04059645 170.93508911 19.0375824 C170.00035568 19.03683635 169.06562225 19.0360903 168.10256357 19.03532164 C152.96484749 19.02267157 137.82724896 18.98945362 122.68958782 18.94778056 C107.14725322 18.90534437 91.60497875 18.88179076 76.06258637 18.87656724 C67.3364737 18.87315485 58.61054468 18.86142011 49.88448906 18.82846451 C42.4517766 18.80043954 35.01928543 18.78947532 27.58652424 18.80065997 C23.79581387 18.80584059 20.0055667 18.80299948 16.21492386 18.77819443 C12.09975477 18.75149128 7.98560144 18.76378256 3.87037659 18.77967834 C2.6797936 18.76579626 1.4892106 18.75191417 0.26254934 18.73761141 C-10.6796462 18.84165477 -19.46357893 22.56339461 -26.2326355 31.38768005 Z " fill="currentColor" transform="translate(108.23263549804688,-0.3876800537109375)"/>
<path d="M0 0 C5.89253789 4.77936851 9.71308638 11.02511883 11.6875 18.3125 C12.80458869 30.00296301 11.51047688 38.94318235 4.0625 48.125 C-1.55153204 54.06494027 -8.77465032 57.81055523 -16.94140625 58.55078125 C-26.76178202 58.79923283 -34.5186153 56.97559708 -42.1875 50.625 C-48.19530902 44.86482469 -51.9528244 38.32437317 -52.55078125 29.9921875 C-52.76567497 18.97605705 -51.26912476 10.4325998 -43.51171875 2.13671875 C-30.30061985 -8.82168833 -14.12187542 -9.65667291 0 0 Z M-30.6875 17.3125 C-33.7382332 21.06724855 -33.63500153 24.63622784 -33.3125 29.3125 C-31.49840802 33.41807659 -29.08994692 35.90867014 -25.3125 38.3125 C-21.24743469 39.42115417 -19.08980733 39.60208508 -15.125 38.125 C-11.24868041 35.62692737 -8.78871609 33.74114827 -7.3125 29.3125 C-6.94061638 24.29207107 -7.17527548 21.31516576 -10.3125 17.3125 C-17.02281923 10.78354075 -23.60055536 11.34454662 -30.6875 17.3125 Z " fill="currentColor" transform="translate(276.3125,426.6875)"/>
<path d="M0 0 C9.24 0 18.48 0 28 0 C28 6.27 28 12.54 28 19 C18.76 19 9.52 19 0 19 C0 12.73 0 6.46 0 0 Z " fill="currentColor" transform="translate(242,36)"/>
</svg>
