
<svg version="1.0" xmlns="http://www.w3.org/2000/svg" width="512.000000pt" height="512.000000pt" viewBox="0 0 512.000000 512.000000">
<g transform="translate(0.000000,512.000000) scale(0.100000,-0.100000)" fill="currentColor" stroke="none">
<path d="M706 4709 c-62 -15 -153 -68 -197 -116 -22 -24 -55 -74 -72 -111
l-32 -67 0 -1856 0 -1855 37 -76 c45 -91 103 -147 196 -191 l67 -32 975 0 975
0 67 32 c93 44 151 100 196 191 l37 76 0 1856 0 1856 -37 76 c-45 91 -103 147
-196 191 l-67 32 -955 2 c-556 1 -971 -3 -994 -8z m1928 -161 c55 -16 138 -99
154 -154 18 -60 18 -3608 0 -3668 -16 -55 -99 -138 -154 -154 -59 -17 -1849
-17 -1908 0 -55 16 -138 99 -154 154 -18 60 -18 3608 0 3668 15 51 99 137 148
153 53 16 1858 17 1914 1z"/>
<path d="M880 4387 c-49 -16 -133 -102 -148 -153 -17 -60 -17 -2968 0 -3028
16 -55 99 -138 154 -154 31 -9 233 -12 796 -12 859 0 816 -4 891 80 24 26 49
66 55 88 17 58 17 2967 0 3026 -16 55 -99 138 -154 154 -56 16 -1542 15 -1594
-1z m1575 -172 l25 -24 0 -1471 0 -1471 -25 -24 -24 -25 -751 0 -751 0 -24 25
-25 24 0 1471 0 1471 25 24 24 25 751 0 751 0 24 -25z"/>
<path d="M1385 855 c-16 -15 -25 -36 -25 -55 0 -19 9 -40 25 -55 l24 -25 271
0 271 0 24 25 c16 15 25 36 25 55 0 19 -9 40 -25 55 l-24 25 -271 0 -271 0
-24 -25z"/>
<path d="M3585 3257 c-51 -24 -108 -79 -120 -116 -5 -18 -16 -20 -140 -23
l-135 -3 -32 -33 -33 -32 0 -170 0 -170 33 -32 32 -33 135 -3 c124 -3 135 -5
140 -23 11 -33 65 -89 109 -112 39 -21 53 -22 281 -22 l240 0 67 32 c90 42
150 100 193 186 19 38 35 76 35 83 0 10 16 14 60 14 51 0 65 -4 85 -25 l25
-24 0 -1151 0 -1151 25 -24 c32 -33 78 -33 110 0 l25 24 0 1152 c0 875 -3
1162 -12 1193 -16 55 -99 138 -154 154 -23 7 -69 12 -103 12 -45 0 -61 4 -61
14 0 7 -16 45 -35 83 -43 86 -103 144 -193 186 l-67 32 -230 3 c-224 3 -231 2
-280 -21z m489 -149 c86 -26 166 -136 166 -228 0 -63 -23 -114 -75 -165 -68
-69 -94 -75 -324 -75 -258 0 -241 -17 -241 240 0 257 -17 240 241 240 121 0
207 -4 233 -12z m-634 -228 l0 -80 -80 0 -80 0 0 80 0 80 80 0 80 0 0 -80z"/>
</g>
</svg>
