
<svg version="1.1" xmlns="http://www.w3.org/2000/svg" width="512" height="512" viewBox="0 0 512.000000 512.000000">
<path d="M0 0 C1.47965913 -0.00679667 1.47965913 -0.00679667 2.98921037 -0.01373065 C6.2861695 -0.02636497 9.58296323 -0.02475488 12.87994385 -0.02310181 C15.24733695 -0.02908767 17.61472811 -0.03589335 19.9821167 -0.04345703 C26.40786612 -0.06111878 32.83356226 -0.06581251 39.25933361 -0.0670886 C43.27584196 -0.06807796 47.29234101 -0.07265349 51.30884552 -0.07808304 C64.60345489 -0.09568758 77.89803204 -0.10492322 91.19265315 -0.10342209 C91.9086583 -0.10334218 92.62466345 -0.10326227 93.36236572 -0.10317993 C94.437693 -0.10305729 94.437693 -0.10305729 95.53474405 -0.10293217 C107.14727164 -0.10211964 118.7596694 -0.12125106 130.37215945 -0.14945666 C142.31102442 -0.17822492 154.24982617 -0.19199478 166.18872666 -0.19026911 C172.88537814 -0.18960654 179.58187315 -0.19543239 186.27849579 -0.21662521 C192.57899033 -0.23602013 198.87919797 -0.23612314 205.17970276 -0.22159195 C207.48749969 -0.21950431 209.79531465 -0.22420202 212.10308075 -0.23631287 C239.76072792 -0.37201488 239.76072792 -0.37201488 251.04498291 10.26742554 C261.22581186 20.58998296 261.6350854 34.58197567 261.55291748 48.23251343 C261.55753483 49.91739215 261.56389332 51.60226684 261.57182646 53.28713322 C261.58842838 57.88461709 261.58031529 62.48176619 261.56788158 67.07925081 C261.55879577 72.05002826 261.57281827 77.02074991 261.58380127 81.99151611 C261.60155349 91.71644576 261.59776121 101.44125167 261.58615071 111.16618609 C261.57710367 119.07243026 261.57589788 126.97863983 261.58024597 134.8848877 C261.5808589 136.01172031 261.58147184 137.13855293 261.58210334 138.299532 C261.58338229 140.58893356 261.58467914 142.87833511 261.58599371 145.16773665 C261.59738985 166.61695431 261.58430095 188.0661035 261.56279224 209.51530993 C261.54492216 227.90504681 261.54802653 246.29468267 261.56646729 264.68441772 C261.58789105 286.05880997 261.5962913 307.43314227 261.58401823 328.80754375 C261.58274408 331.08835029 261.5814866 333.36915683 261.58024597 335.64996338 C261.57932032 337.33310272 261.57932032 337.33310272 261.57837597 339.05024487 C261.57492759 346.94362682 261.58074036 354.83697063 261.59016418 362.73034668 C261.60140227 372.35456423 261.59830605 381.97865134 261.57704121 391.60285401 C261.56655519 396.50982352 261.56236713 401.41657583 261.57563782 406.32354355 C261.58761836 410.82161792 261.58090647 415.31927521 261.55972761 419.81731212 C261.55528543 421.4382705 261.55747372 423.05926464 261.56723076 424.68019974 C261.63645848 437.14394458 260.62051019 449.39092271 252.16607666 459.26351929 C243.16276716 467.76940837 234.12317972 470.57563979 222.08996582 470.53485107 C220.61030669 470.54164774 220.61030669 470.54164774 219.10075545 470.54858172 C215.80379632 470.56121604 212.50700259 470.55960595 209.21002197 470.55795288 C206.84262887 470.56393875 204.47523771 470.57074443 202.10784912 470.57830811 C195.6820997 470.59596985 189.25640356 470.60066358 182.83063221 470.60193968 C178.81412386 470.60292903 174.79762481 470.60750457 170.7811203 470.61293411 C157.48651093 470.63053866 144.19193378 470.63977429 130.89731267 470.63827316 C130.18130752 470.63819325 129.46530237 470.63811334 128.7276001 470.63803101 C127.65227282 470.63790836 127.65227282 470.63790836 126.55522177 470.63778324 C114.94269418 470.63697071 103.33029642 470.65610214 91.71780637 470.68430774 C79.7789414 470.71307599 67.84013965 470.72684585 55.90123916 470.72512019 C49.20458768 470.72445761 42.50809267 470.73028347 35.81147003 470.75147629 C29.51097549 470.77087121 23.21076785 470.77097421 16.91026306 470.75644302 C14.60246613 470.75435538 12.29465117 470.7590531 9.98688507 470.77116394 C-17.6707621 470.90686596 -17.6707621 470.90686596 -28.95501709 460.26742554 C-39.13584604 449.94486811 -39.54511958 435.95287541 -39.46295166 422.30233765 C-39.46756901 420.61745892 -39.4739275 418.93258423 -39.48186064 417.24771786 C-39.49846256 412.65023398 -39.49034947 408.05308489 -39.47791576 403.45560026 C-39.46882995 398.48482282 -39.48285245 393.51410116 -39.49383545 388.54333496 C-39.51158766 378.81840531 -39.50779539 369.09359941 -39.49618489 359.36866498 C-39.48713785 351.46242081 -39.48593206 343.55621124 -39.49028015 335.64996338 C-39.49089308 334.52313076 -39.49150602 333.39629814 -39.49213752 332.23531908 C-39.49341647 329.94591752 -39.49471332 327.65651597 -39.49602789 325.36711442 C-39.50742403 303.91789676 -39.49433513 282.46874757 -39.47282642 261.01954114 C-39.45495633 242.62980427 -39.45806071 224.2401684 -39.47650146 205.85043335 C-39.49792523 184.4760411 -39.50632548 163.10170881 -39.49405241 141.72730732 C-39.49277826 139.44650079 -39.49152078 137.16569425 -39.49028015 134.8848877 C-39.48966305 133.7627948 -39.48904595 132.64070191 -39.48841015 131.48460621 C-39.48496177 123.59122425 -39.49077454 115.69788044 -39.50019836 107.80450439 C-39.51143645 98.18028685 -39.50834023 88.55619974 -39.48707539 78.93199706 C-39.47658937 74.02502756 -39.47240131 69.11827525 -39.485672 64.21130753 C-39.49765254 59.71323315 -39.49094065 55.21557587 -39.46976179 50.71753895 C-39.46531961 49.09658057 -39.4675079 47.47558644 -39.47726494 45.85465133 C-39.54649266 33.39090649 -38.53054437 21.14392837 -30.07611084 11.27133179 C-21.07280134 2.7654427 -12.0332139 -0.04078872 0 0 Z M-19.20892334 22.54867554 C-19.64075928 23.28086304 -20.07259521 24.01305054 -20.51751709 24.76742554 C-20.97255615 25.49961304 -21.42759521 26.23180054 -21.89642334 26.98617554 C-23.95183674 31.41555349 -24.07972606 35.73845417 -24.07806492 40.56738758 C-24.08005597 41.84529881 -24.08204702 43.12321005 -24.0840984 44.43984586 C-24.08124552 45.85574602 -24.07829992 47.27164599 -24.07527161 48.68754578 C-24.07570767 50.19328857 -24.07658323 51.69903129 -24.07786077 53.2047736 C-24.08009879 57.34365941 -24.07609389 61.48251939 -24.07108271 65.62140191 C-24.06676848 70.08420507 -24.06822533 74.54700674 -24.06898499 79.0098114 C-24.0695096 86.7423417 -24.06636929 94.47486356 -24.06074715 102.20739174 C-24.05262374 113.38736094 -24.05001606 124.56732607 -24.04875915 135.74729791 C-24.04656996 153.88560122 -24.03991346 172.02390005 -24.03045654 190.16220093 C-24.021279 207.78296893 -24.0142113 225.40373571 -24.00994873 243.02450562 C-24.00968073 244.12153673 -24.00941274 245.21856784 -24.00913662 246.34884232 C-24.00705722 254.9282123 -24.00510029 263.50758231 -24.00318205 272.08695233 C-23.99374659 314.14711419 -23.9736287 356.2072648 -23.95501709 398.26742554 C65.14498291 398.26742554 154.24498291 398.26742554 246.04498291 398.26742554 C246.13237731 333.79184547 246.13237731 333.79184547 246.19146729 269.31625366 C246.19734093 260.62557966 246.20340238 251.93490582 246.20977783 243.24423218 C246.21056908 242.15499358 246.21136032 241.06575499 246.21217555 239.94350916 C246.22522446 222.35720122 246.24887648 204.77092269 246.2764413 187.18463219 C246.30449311 169.13716252 246.3211587 151.08970825 246.32724839 133.04221767 C246.33136529 121.90541997 246.34436959 110.76870538 246.36873231 99.63193326 C246.38458671 91.99565758 246.38938393 84.35942488 246.38548704 76.72313393 C246.38356505 72.31700718 246.3865173 67.91102571 246.40259933 63.50492477 C246.41722398 59.46860433 246.41791868 55.43252654 246.4076796 51.39619481 C246.40641455 49.93843513 246.4101984 48.48066015 246.41963246 47.02293045 C246.47477866 37.97334291 246.00103462 30.47007655 241.48248291 22.51742554 C234.91320613 16.45347774 227.68401397 14.52210117 218.95025635 14.63250732 C217.9850494 14.62470737 217.01984245 14.61690742 216.02538681 14.6088711 C212.81797922 14.58905993 209.61177254 14.60467336 206.40435791 14.62045288 C204.09400749 14.61367196 201.78366247 14.60476617 199.47332764 14.59390259 C193.21711405 14.57115957 186.96131395 14.57992529 180.70509338 14.59579802 C174.14878245 14.60848273 167.59250622 14.59670975 161.03619385 14.58886719 C149.32278445 14.5781984 137.60954853 14.59470612 125.89616919 14.62016387 C115.29073296 14.64250061 104.68557045 14.63861982 94.08013916 14.61557007 C81.74369036 14.58877043 69.40741589 14.57887469 57.07094193 14.59363139 C50.54818402 14.60141476 44.02561436 14.60249787 37.50286865 14.58594894 C31.36967766 14.57147447 25.23700206 14.5815812 19.10386658 14.61042023 C16.8569372 14.61701501 14.60996423 14.61516104 12.36305237 14.6041069 C9.288025 14.59037682 6.21463352 14.60765849 3.13970947 14.63250732 C1.81623819 14.61577691 1.81623819 14.61577691 0.46603012 14.59870851 C-7.04759297 14.71591985 -13.85420526 17.12899554 -19.20892334 22.54867554 Z M-23.95501709 413.26742554 C-25.04868059 432.01502167 -25.04868059 432.01502167 -19.39251709 448.01742554 C-12.82324031 454.08137333 -5.59404815 456.0127499 3.13970947 455.90234375 C4.10491642 455.9101437 5.07012337 455.91794366 6.06457901 455.92597997 C9.2719866 455.94579115 12.47819328 455.93017771 15.68560791 455.91439819 C17.99595833 455.92117912 20.30630335 455.93008491 22.61663818 455.94094849 C28.87285177 455.9636915 35.12865187 455.95492578 41.38487244 455.93905306 C47.94118337 455.92636834 54.4974596 455.93814133 61.05377197 455.94598389 C72.76718137 455.95665267 84.48041729 455.94014496 96.19379663 455.9146872 C106.79923286 455.89235046 117.40439537 455.89623126 128.00982666 455.91928101 C140.34627546 455.94608065 152.68254993 455.95597639 165.0190239 455.94121969 C171.5417818 455.93343632 178.06435146 455.93235321 184.58709717 455.94890213 C190.72028816 455.9633766 196.85296376 455.95326988 202.98609924 455.92443085 C205.23302862 455.91783607 207.48000159 455.91969004 209.72691345 455.93074417 C212.80194082 455.94447426 215.8753323 455.92719258 218.95025635 455.90234375 C220.27372763 455.91907416 220.27372763 455.91907416 221.6239357 455.93614256 C228.76107984 455.82480423 235.65089172 453.73450392 240.76336288 448.51209319 C248.74802539 438.42134921 246.04498291 425.5055576 246.04498291 413.26742554 C156.94498291 413.26742554 67.84498291 413.26742554 -23.95501709 413.26742554 Z " fill="currentColor" transform="translate(144.95501708984375,20.732574462890625)"/>
<path d="M0 0 C4.15968558 2.06200537 6.37807909 4.80798492 8.5 8.875 C9.37554958 14.34718488 8.83591 18.35913962 6.3125 23.3125 C2.6376769 27.58324036 -0.36694242 28.81854916 -5.9375 29.4375 C-10.36199912 29.22600387 -13.6897098 27.96755814 -17 25 C-20.04215621 21.12737011 -21.34362691 17.36501428 -21.125 12.4375 C-20.3098083 7.48628301 -17.68370172 4.28308694 -14 1 C-9.76001147 -1.11999426 -4.59269347 -0.61587843 0 0 Z " fill="currentColor" transform="translate(262,64)"/>
</svg>
