<svg width="45" height="45" viewBox="0 0 45 45" fill="none" xmlns="http://www.w3.org/2000/svg">
<path d="M6.71053 14.0098H29.403C33.1743 14.0098 35.0599 14.0098 36.2315 15.1814C37.403 16.353 37.403 18.2386 37.403 22.0098V39.4803M37.403 39.4803H10.5C6.72876 39.4803 4.84315 39.4803 3.67157 38.3088C2.5 37.1372 2.5 35.2516 2.5 31.4803V13.5197C2.5 9.74842 2.5 7.8628 3.67157 6.69123C4.84315 5.51965 6.72876 5.51965 10.5 5.51965H13.8058C15.1759 5.51965 15.8609 5.51965 16.4961 5.73927C17.1312 5.95889 17.67 6.38204 18.7474 7.22836L18.9396 7.37928C20.017 8.2256 20.5558 8.64875 21.1909 8.86837C21.826 9.08799 22.5111 9.08799 23.8812 9.08799H34.5C38.2712 9.08799 40.1569 9.08799 41.3284 10.2596C42.5 11.4311 42.5 13.3168 42.5 17.088V34.3834C42.5 35.403 42.5 35.9128 42.4076 36.3352C42.0736 37.8617 40.8814 39.0539 39.3549 39.3879C38.9324 39.4803 38.4226 39.4803 37.403 39.4803V39.4803Z" stroke="currentColor" stroke-width="2"/>
<path d="M19.2393 30.326C19.2464 29.8104 19.2679 29.3879 19.3037 29.0585C19.3395 28.7219 19.4147 28.4211 19.5293 28.1561C19.6439 27.8983 19.8086 27.6512 20.0234 27.4149C20.2383 27.1714 20.5247 26.885 20.8828 26.5555C21.1263 26.3049 21.3734 26.0471 21.624 25.7821C21.8818 25.5171 22.1182 25.2378 22.333 24.9442C22.5407 24.6577 22.7126 24.3534 22.8486 24.0311C22.9847 23.7088 23.0527 23.3687 23.0527 23.0106C23.0527 22.6382 22.999 22.3088 22.8916 22.0223C22.7913 21.7287 22.641 21.4816 22.4404 21.2811C22.2184 21.0591 21.9391 20.8908 21.6025 20.7762C21.266 20.6616 20.8792 20.6044 20.4424 20.6044C20.1058 20.6044 19.7764 20.6473 19.4541 20.7333C19.139 20.812 18.8597 20.9374 18.6162 21.1092C18.3656 21.2883 18.165 21.5139 18.0146 21.786C17.8643 22.051 17.7891 22.3697 17.7891 22.7421H15.8018C15.8089 22.1405 15.9342 21.5998 16.1777 21.12C16.4212 20.6402 16.7507 20.232 17.166 19.8954C17.5742 19.5659 18.0576 19.3153 18.6162 19.1434C19.182 18.9644 19.7907 18.8749 20.4424 18.8749C21.1657 18.8749 21.8102 18.968 22.376 19.1542C22.9489 19.3332 23.4323 19.5982 23.8262 19.9491C24.2201 20.3 24.5208 20.7261 24.7285 21.2274C24.9362 21.7287 25.04 22.3016 25.04 22.9462C25.04 23.4618 24.9505 23.9488 24.7715 24.4071C24.5924 24.8583 24.3633 25.2844 24.084 25.6854C23.8047 26.0936 23.4896 26.4732 23.1387 26.8241C22.7949 27.175 22.4548 27.5008 22.1182 27.8016C21.9033 28.0093 21.735 28.2062 21.6133 28.3924C21.4987 28.5786 21.4128 28.7684 21.3555 28.9618C21.2982 29.1551 21.2624 29.3628 21.248 29.5848C21.2337 29.7997 21.2266 30.0467 21.2266 30.326H19.2393ZM19.0137 33.6883C19.0137 33.3446 19.1139 33.0581 19.3145 32.829C19.5221 32.5998 19.8301 32.4852 20.2383 32.4852C20.6465 32.4852 20.9544 32.5998 21.1621 32.829C21.377 33.0581 21.4844 33.3446 21.4844 33.6883C21.4844 34.0178 21.377 34.2935 21.1621 34.5155C20.9544 34.7375 20.6465 34.8485 20.2383 34.8485C19.8301 34.8485 19.5221 34.7375 19.3145 34.5155C19.1139 34.2935 19.0137 34.0178 19.0137 33.6883Z" fill="currentColor"/>
</svg>
